<?xml version="1.0" encoding="utf-8"?>
<!-- Generator: Adobe Illustrator 16.0.0, SVG Export Plug-In . SVG Version: 6.00 Build 0)  -->
<!DOCTYPE svg PUBLIC "-//W3C//DTD SVG 1.1//EN" "http://www.w3.org/Graphics/SVG/1.1/DTD/svg11.dtd">
<svg version="1.1" id="图层_1" xmlns="http://www.w3.org/2000/svg" xmlns:xlink="http://www.w3.org/1999/xlink" x="0px" y="0px"
	 width="25px" height="25px" viewBox="0 0 25 25" enable-background="new 0 0 25 25" xml:space="preserve">
<path fill="#FC8736" d="M24.624,12.305L13.132,0.82c-0.348-0.348-0.912-0.349-1.26-0.001c-0.001,0-0.002,0.001-0.002,0.001
	L0.378,12.305c-0.335,0.335-0.525,0.789-0.525,1.264c0,0.985,0.801,1.786,1.786,1.786H2.85v8.194c0,0.494,0.399,0.893,0.894,0.893
	h6.973v-6.25h3.125v6.25h7.418c0.494,0,0.894-0.398,0.894-0.893v-8.194h1.211c0.474,0,0.929-0.187,1.264-0.524
	C25.321,14.133,25.321,13.002,24.624,12.305z"/>
</svg>
