<?xml version="1.0" encoding="utf-8"?>
<!-- Generator: Adobe Illustrator 16.0.0, SVG Export Plug-In . SVG Version: 6.00 Build 0)  -->
<!DOCTYPE svg PUBLIC "-//W3C//DTD SVG 1.1//EN" "http://www.w3.org/Graphics/SVG/1.1/DTD/svg11.dtd">
<svg version="1.1" id="图层_1" xmlns="http://www.w3.org/2000/svg" xmlns:xlink="http://www.w3.org/1999/xlink" x="0px" y="0px"
	 width="28px" height="28px" viewBox="0 0 28 28" enable-background="new 0 0 28 28" xml:space="preserve">
<path fill="#FC8736" d="M27,4.698h-7.15c-1.534,0-3.034,0.44-4.324,1.271L14,6.948L12.475,5.97C11.186,5.14,9.684,4.697,8.15,4.698
	H1c-0.553,0-1,0.447-1,1v17.75c0,0.553,0.447,1,1,1h7.15c1.534,0,3.034,0.44,4.324,1.271l1.388,0.895
	c0.041,0.024,0.088,0.04,0.135,0.04s0.094-0.013,0.134-0.04l1.388-0.895c1.294-0.831,2.797-1.271,4.331-1.271H27
	c0.553,0,1-0.447,1-1V5.698C28,5.146,27.553,4.698,27,4.698z M10.625,16.964c0,0.128-0.1,0.234-0.222,0.234H4.597
	c-0.122,0-0.222-0.106-0.222-0.234v-1.406c0-0.128,0.1-0.234,0.222-0.234H10.4c0.121,0,0.222,0.106,0.222,0.234v1.406H10.625z
	 M10.625,12.589c0,0.128-0.1,0.234-0.222,0.234H4.597c-0.122,0-0.222-0.106-0.222-0.234v-1.406c0-0.128,0.1-0.234,0.222-0.234H10.4
	c0.121,0,0.222,0.106,0.222,0.234v1.406H10.625z M23.625,16.964c0,0.128-0.1,0.234-0.222,0.234h-5.807
	c-0.122,0-0.222-0.106-0.222-0.234v-1.406c0-0.128,0.1-0.234,0.222-0.234H23.4c0.121,0,0.222,0.106,0.222,0.234v1.406H23.625z
	 M23.625,12.589c0,0.128-0.1,0.234-0.222,0.234h-5.807c-0.122,0-0.222-0.106-0.222-0.234v-1.406c0-0.128,0.1-0.234,0.222-0.234H23.4
	c0.121,0,0.222,0.106,0.222,0.234v1.406H23.625z"/>
</svg>
