<?xml version="1.0" encoding="utf-8"?>
<!-- Generator: Adobe Illustrator 16.0.0, SVG Export Plug-In . SVG Version: 6.00 Build 0)  -->
<!DOCTYPE svg PUBLIC "-//W3C//DTD SVG 1.1//EN" "http://www.w3.org/Graphics/SVG/1.1/DTD/svg11.dtd">
<svg version="1.1" id="图层_1" xmlns="http://www.w3.org/2000/svg" xmlns:xlink="http://www.w3.org/1999/xlink" x="0px" y="0px"
	 width="25px" height="25px" viewBox="0 0 25 25" enable-background="new 0 0 25 25" xml:space="preserve">
<path fill="#666666" d="M24.771,11.754L13.99,0.979l-0.723-0.723c-0.342-0.341-0.896-0.341-1.238,0L0.525,11.754
	c-0.342,0.34-0.53,0.803-0.525,1.283c0.012,0.982,0.829,1.767,1.812,1.767h1.186v9.087H22.3v-9.087h1.211
	c0.478,0,0.927-0.187,1.264-0.524c0.336-0.335,0.524-0.79,0.522-1.264C25.297,12.541,25.109,12.092,24.771,11.754z M14.211,21.883
	h-3.125V16.19h3.125V21.883z M20.291,12.795v9.088h-4.295v-6.362c0-0.616-0.499-1.116-1.115-1.116h-4.465
	c-0.616,0-1.115,0.5-1.115,1.116v6.362H5.006v-9.088H2.328L12.651,2.479l0.645,0.645l9.677,9.671H20.291z"/>
</svg>
