<?xml version="1.0" encoding="utf-8"?>
<!-- Generator: Adobe Illustrator 16.0.0, SVG Export Plug-In . SVG Version: 6.00 Build 0)  -->
<!DOCTYPE svg PUBLIC "-//W3C//DTD SVG 1.1//EN" "http://www.w3.org/Graphics/SVG/1.1/DTD/svg11.dtd">
<svg version="1.1" id="图层_1" xmlns="http://www.w3.org/2000/svg" xmlns:xlink="http://www.w3.org/1999/xlink" x="0px" y="0px"
	 width="25px" height="25px" viewBox="0 0 25 25" enable-background="new 0 0 25 25" xml:space="preserve">
<path fill="#666666" d="M22.168,19.52c-0.526-1.246-1.29-2.379-2.249-3.334c-0.956-0.957-2.088-1.721-3.334-2.248
	c-0.011-0.006-0.022-0.009-0.034-0.015c1.738-1.255,2.869-3.301,2.869-5.608c0-3.822-3.098-6.92-6.92-6.92s-6.92,3.098-6.92,6.92
	c0,2.308,1.131,4.354,2.869,5.611c-0.012,0.006-0.023,0.008-0.034,0.014c-1.25,0.527-2.372,1.283-3.334,2.249
	c-0.958,0.956-1.722,2.089-2.249,3.335c-0.518,1.22-0.797,2.527-0.823,3.853c-0.003,0.124,0.095,0.226,0.218,0.229
	c0.002,0,0.004,0,0.006,0h1.674c0.123,0,0.221-0.098,0.223-0.219c0.057-2.153,0.922-4.171,2.45-5.699
	c1.582-1.582,3.683-2.453,5.921-2.453s4.339,0.871,5.921,2.453c1.528,1.528,2.394,3.546,2.45,5.699
	c0.002,0.123,0.1,0.219,0.223,0.219h1.674c0.123,0,0.224-0.101,0.224-0.224c0-0.002,0-0.004,0-0.006
	C22.963,22.043,22.688,20.745,22.168,19.52z M12.5,13.113c-1.281,0-2.486-0.499-3.393-1.406C8.2,10.801,7.701,9.596,7.701,8.314
	c0-1.28,0.499-2.486,1.406-3.393c0.906-0.906,2.111-1.406,3.393-1.406s2.486,0.5,3.393,1.406c0.907,0.906,1.406,2.112,1.406,3.393
	c0,1.281-0.499,2.486-1.406,3.393C14.986,12.614,13.781,13.113,12.5,13.113z"/>
</svg>
