<?xml version="1.0" encoding="utf-8"?>
<!-- Generator: Adobe Illustrator 16.0.0, SVG Export Plug-In . SVG Version: 6.00 Build 0)  -->
<!DOCTYPE svg PUBLIC "-//W3C//DTD SVG 1.1//EN" "http://www.w3.org/Graphics/SVG/1.1/DTD/svg11.dtd">
<svg version="1.1" id="图层_1" xmlns="http://www.w3.org/2000/svg" xmlns:xlink="http://www.w3.org/1999/xlink" x="0px" y="0px"
	 width="25px" height="25px" viewBox="0 0 25 25" enable-background="new 0 0 25 25" xml:space="preserve">
<path fill="#FC8736" d="M12.5,12.5c3.452,0,6.25-2.798,6.25-6.25S15.952,0,12.5,0S6.25,2.798,6.25,6.25S9.048,12.5,12.5,12.5z
	 M16.875,14.063H16.06c-1.084,0.498-2.29,0.781-3.56,0.781s-2.471-0.283-3.56-0.781H8.125c-3.623,0-6.563,2.939-6.563,6.563v2.031
	C1.563,23.95,2.612,25,3.906,25h17.188c1.294,0,2.344-1.05,2.344-2.344v-2.031C23.438,17.002,20.498,14.063,16.875,14.063z"/>
</svg>
